<svg id="Filled_Expand" height="512" viewBox="0 0 64 64" width="512" xmlns="http://www.w3.org/2000/svg" data-name="Filled Expand"><g fill="#fbeba7"><circle cx="42.5" cy="47.5" r="4.5"/><circle cx="50.87" cy="46" r="4"/><circle cx="56.5" cy="41" r="3.5"/><circle cx="59.5" cy="35.25" r="3"/><circle cx="60.5" cy="29.75" r="2.5"/><circle cx="34.13" cy="46" r="4"/><circle cx="28.5" cy="41" r="3.5"/><circle cx="25.5" cy="35.25" r="3"/><circle cx="24.5" cy="29.75" r="2.5"/><circle cx="60" cy="24.75" r="2.5"/><circle cx="25" cy="24.75" r="2.5"/><circle cx="57.5" cy="20.25" r="2.5"/><circle cx="27.5" cy="20.25" r="2.5"/><circle cx="54" cy="16.5" r="2.5"/><circle cx="49.5" cy="14" r="2.5"/><circle cx="31" cy="16.5" r="2.5"/><circle cx="35.5" cy="14" r="2.5"/></g><ellipse cx="42.5" cy="14" fill="#ffe648" rx="4.5" ry="2"/><path d="m2 9 12 13 12-13z" fill="#78b9f5"/><path d="m10 9 4 13 4-13z" fill="#aad9ff"/><path d="m2 9 4-6h16l4 6z" fill="#8cc3fa"/><path d="m22 3-4 6h-8l-4-6z" fill="#aad9ff"/><path d="m10 9 4-6 4 6z" fill="#78b9f5"/><path d="m6 49-2.4 1.8a4 4 0 0 0 2.4 7.2 4 4 0 0 0 2.4-7.2z" fill="#ffe648"/><path d="m18 49.11-2.4 1.8a4 4 0 0 0 2.4 7.2 4 4 0 0 0 2.4-7.2z" fill="#ffe648"/><path d="m64 29.75a3.46 3.46 0 0 0 -1.35-2.75 3.47 3.47 0 0 0 .85-2.26 3.5 3.5 0 0 0 -2.7-3.4 3.35 3.35 0 0 0 .2-1.1 3.5 3.5 0 0 0 -3.5-3.5 1.9 1.9 0 0 0 0-.25 3.5 3.5 0 0 0 -3.5-3.49 3.35 3.35 0 0 0 -1.1.2 3.49 3.49 0 0 0 -6.25-1.2 9.65 9.65 0 0 0 -8.3 0 3.49 3.49 0 0 0 -6.25 1.2 3.35 3.35 0 0 0 -1.1-.2 3.5 3.5 0 0 0 -3.5 3.5 1.9 1.9 0 0 0 0 .25 3.5 3.5 0 0 0 -3.5 3.5 3.35 3.35 0 0 0 .2 1.1 3.5 3.5 0 0 0 -2.7 3.4 3.47 3.47 0 0 0 .85 2.25 3.47 3.47 0 0 0 .16 5.61 4 4 0 0 0 1.93 6.47 4.47 4.47 0 0 0 4.06 6.42 3.82 3.82 0 0 0 .68-.07 5.51 5.51 0 0 0 -.06.57 5 5 0 0 0 8.34 3.7 5.5 5.5 0 0 0 10.08 0 5 5 0 0 0 8.34-3.7 5.51 5.51 0 0 0 -.06-.57 3.82 3.82 0 0 0 .68.07 4.47 4.47 0 0 0 4.06-6.41 4 4 0 0 0 1.93-6.47 3.49 3.49 0 0 0 1.51-2.87zm-4-6.5a1.5 1.5 0 1 1 -1.5 1.5 1.5 1.5 0 0 1 1.5-1.5zm-2.5-4.5a1.5 1.5 0 1 1 -1.5 1.5 1.5 1.5 0 0 1 1.5-1.5zm-3.5-3.75a1.5 1.5 0 1 1 -1.5 1.5 1.5 1.5 0 0 1 1.5-1.5zm-4.5-2.5a1.5 1.5 0 1 1 -1.5 1.5 1.5 1.5 0 0 1 1.5-1.5zm-10.5 1.5c.09-.28 1.3-1 3.5-1s3.35.71 3.49 1c-.14.29-1.35 1-3.49 1s-3.41-.74-3.5-1zm-3.5-1.5a1.5 1.5 0 1 1 -1.5 1.5 1.5 1.5 0 0 1 1.5-1.5zm-4.5 2.5a1.5 1.5 0 1 1 -1.5 1.5 1.5 1.5 0 0 1 1.5-1.5zm-3.5 3.75a1.5 1.5 0 1 1 -1.5 1.5 1.5 1.5 0 0 1 1.5-1.5zm-2.5 4.5a1.5 1.5 0 1 1 -1.5 1.5 1.5 1.5 0 0 1 1.5-1.5zm-2 6.5a1.5 1.5 0 1 1 1.5 1.5 1.5 1.5 0 0 1 -1.5-1.5zm.5 5.5a2 2 0 1 1 2 2 2 2 0 0 1 -2-2zm5 8.25a2.5 2.5 0 1 1 2.5-2.5 2.5 2.5 0 0 1 -2.5 2.5zm5.62 5.5a3 3 0 1 1 3-3 3 3 0 0 1 -3 3zm8.38 2a3.5 3.5 0 1 1 3.5-3.5 3.5 3.5 0 0 1 -3.5 3.5zm4-7.3a5.46 5.46 0 0 0 -7.92 0 5 5 0 0 0 -4.46-2.7 5.22 5.22 0 0 0 -1.13.14s0-.09 0-.14a4.49 4.49 0 0 0 -3.74-4.42 4.18 4.18 0 0 0 .24-1.33 4 4 0 0 0 -2.13-3.51 3.44 3.44 0 0 0 -.22-4.25 3.46 3.46 0 0 0 1.35-2.74 3.35 3.35 0 0 0 -.2-1.1 3.5 3.5 0 0 0 2.7-3.4 1.9 1.9 0 0 0 .01-.25 3.5 3.5 0 0 0 3.4-2.7 3.35 3.35 0 0 0 1.1.2 3.49 3.49 0 0 0 2.84-1.5 8.42 8.42 0 0 0 4.16 1 8.42 8.42 0 0 0 4.16-1 3.49 3.49 0 0 0 2.84 1.5 3.35 3.35 0 0 0 1.1-.2 3.5 3.5 0 0 0 3.4 2.7 1.9 1.9 0 0 0 0 .25 3.5 3.5 0 0 0 2.7 3.4 3.35 3.35 0 0 0 -.2 1.1 3.46 3.46 0 0 0 1.35 2.74 3.44 3.44 0 0 0 -.22 4.25 4 4 0 0 0 -2.13 3.51 4.18 4.18 0 0 0 .24 1.33 4.49 4.49 0 0 0 -3.74 4.42s0 .09 0 .14a5.22 5.22 0 0 0 -1.12-.14 5 5 0 0 0 -4.42 2.7zm4.38 5.3a3 3 0 1 1 3-3 3 3 0 0 1 -3 3zm5.62-5.5a2.5 2.5 0 1 1 2.5-2.5 2.5 2.5 0 0 1 -2.5 2.5zm3-6.25a2 2 0 1 1 2-2 2 2 0 0 1 -2 2zm1-6a1.5 1.5 0 1 1 1.5-1.5 1.5 1.5 0 0 1 -1.5 1.5z"/><path d="m9 50-2-1.5v-1.65a3.5 3.5 0 1 0 -4.5-3.35 1 1 0 0 0 2 0 1.5 1.5 0 1 1 1.5 1.5 1 1 0 0 0 -1 1v2.5l-2 1.5a5 5 0 0 0 -2 4v7a1 1 0 0 0 2 0v-3a4.76 4.76 0 0 0 2 .88v3.12a1 1 0 0 0 2 0v-3.11a4.76 4.76 0 0 0 2-.89v3a1 1 0 0 0 2 0v-7a5 5 0 0 0 -2-4zm-.16 5a2.92 2.92 0 0 1 -2.84 2 3 3 0 0 1 -1.79-5.4l1.79-1.35 1.79 1.35a2.93 2.93 0 0 1 1.05 3.4z"/><path d="m21 50.11-2-1.5v-1.76a3.5 3.5 0 1 0 -4.5-3.35 1 1 0 0 0 2 0 1.5 1.5 0 1 1 1.5 1.5 1 1 0 0 0 -1 1v2.61l-2 1.5a5 5 0 0 0 -2 4v7a1 1 0 0 0 2 0v-3a4.76 4.76 0 0 0 2 .89v3.11a1 1 0 0 0 2 0v-3.11a4.76 4.76 0 0 0 2-.88v3a1 1 0 0 0 2 0v-7a5 5 0 0 0 -2-4.01zm-.16 5a3 3 0 1 1 -4.63-3.35l1.79-1.4 1.79 1.35a2.93 2.93 0 0 1 1.05 3.35z"/><path d="m13.27 22.68a1 1 0 0 0 1.46 0l12-13a1 1 0 0 0 .1-1.23l-4-6a1 1 0 0 0 -.83-.45h-16a1 1 0 0 0 -.83.45l-4 6a1 1 0 0 0 .1 1.23zm-8.99-12.68h5l2.49 8.09zm9.72 8.6-2.65-8.6h5.3zm2.25-.51 2.49-8.09h5zm7.88-10.09h-4.26l2.13-3.2zm-4-4-2.13 3.2-2.13-3.2zm-4 4h-4.26l2.13-3.2zm-4-4-2.13 3.2-2.13-3.2zm-6.13.8 2.13 3.2h-4.26z"/></svg>