<svg height="496pt" viewBox="-8 0 496 496" width="496pt" xmlns="http://www.w3.org/2000/svg"><path d="m248 128h224v136h-224zm0 0" fill="#787680"/><path d="m300 8c6.628906 0 12 5.371094 12 12v108h-24v-108c0-6.628906 5.371094-12 12-12zm0 0" fill="#ffda44"/><path d="m420 8c6.628906 0 12 5.371094 12 12v108h-24v-108c0-6.628906 5.371094-12 12-12zm0 0" fill="#ffda44"/><path d="m440 264c0 44.183594-35.816406 80-80 80s-80-35.816406-80-80zm0 0" fill="#c6c5ca"/><path d="m400 333.28125v42.71875c-.027344 8.824219-7.175781 15.972656-16 16h-48c-8.824219-.027344-15.972656-7.175781-16-16v-42.71875zm0 0" fill="#787680"/><g fill="#231f20"><path d="m472 120h-32v-100c0-11.046875-8.953125-20-20-20s-20 8.953125-20 20v100h-80v-100c0-11.046875-8.953125-20-20-20s-20 8.953125-20 20v100h-32c-4.417969 0-8 3.582031-8 8v136c0 4.417969 3.582031 8 8 8h24.535156c2.496094 26.707031 17.023438 50.824219 39.464844 65.519531v38.480469c0 13.253906 10.746094 24 24 24h16v80h-144v-320c0-4.417969-3.582031-8-8-8h-96c-4.417969 0-8 3.582031-8 8v80h-56c-4.417969 0-8 3.582031-8 8s3.582031 8 8 8h64c4.417969 0 8-3.582031 8-8v-80h80v320c0 4.417969 3.582031 8 8 8h160c4.417969 0 8-3.582031 8-8v-88h16c13.253906 0 24-10.746094 24-24v-38.472656c22.441406-14.699219 36.964844-38.816406 39.464844-65.527344h24.535156c4.417969 0 8-3.582031 8-8v-136c0-4.417969-3.582031-8-8-8zm-56-100c0-2.210938 1.789062-4 4-4s4 1.789062 4 4v100h-8zm-120 0c0-2.210938 1.789062-4 4-4s4 1.789062 4 4v100h-8zm88 364h-48c-4.417969 0-8-3.582031-8-8v-30.128906c20.550781 8.171875 43.449219 8.171875 64 0v30.128906c0 4.417969-3.582031 8-8 8zm12-57.648438c-22.339844 12.628907-49.660156 12.628907-72 0-19.777344-11.476562-32.957031-31.632812-35.542969-54.351562h143.085938c-2.585938 22.71875-15.769531 42.871094-35.542969 54.351562zm68-70.351562h-208v-120h208zm0 0"/><path d="m328 232h-56c-4.417969 0-8 3.582031-8 8s3.582031 8 8 8h56c4.417969 0 8-3.582031 8-8s-3.582031-8-8-8zm0 0"/><path d="m16 240h-8c-4.417969 0-8 3.582031-8 8s3.582031 8 8 8h8c4.417969 0 8-3.582031 8-8s-3.582031-8-8-8zm0 0"/><path d="m272 160h8c4.417969 0 8-3.582031 8-8s-3.582031-8-8-8h-8c-4.417969 0-8 3.582031-8 8s3.582031 8 8 8zm0 0"/><path d="m440 160h8c4.417969 0 8-3.582031 8-8s-3.582031-8-8-8h-8c-4.417969 0-8 3.582031-8 8s3.582031 8 8 8zm0 0"/><path d="m448 232h-8c-4.417969 0-8 3.582031-8 8s3.582031 8 8 8h8c4.417969 0 8-3.582031 8-8s-3.582031-8-8-8zm0 0"/></g></svg>